<svg xmlns="http://www.w3.org/2000/svg" viewBox="0 0 100 100" preserveAspectRatio="xMidYMid" width="200" height="200" style="shape-rendering: auto; display: block; background: rgb(255, 255, 255);" xmlns:xlink="http://www.w3.org/1999/xlink"><g><g transform="rotate(0 50 50)">
  <rect fill="#88cb7f" height="12" width="5" ry="6" rx="2.5" y="24" x="47.5">
    <animate repeatCount="indefinite" begin="-0.8823529411764707s" dur="0.9803921568627451s" keyTimes="0;1" values="1;0" attributeName="opacity"></animate>
  </rect>
</g><g transform="rotate(36 50 50)">
  <rect fill="#88cb7f" height="12" width="5" ry="6" rx="2.5" y="24" x="47.5">
    <animate repeatCount="indefinite" begin="-0.7843137254901962s" dur="0.9803921568627451s" keyTimes="0;1" values="1;0" attributeName="opacity"></animate>
  </rect>
</g><g transform="rotate(72 50 50)">
  <rect fill="#88cb7f" height="12" width="5" ry="6" rx="2.5" y="24" x="47.5">
    <animate repeatCount="indefinite" begin="-0.6862745098039216s" dur="0.9803921568627451s" keyTimes="0;1" values="1;0" attributeName="opacity"></animate>
  </rect>
</g><g transform="rotate(108 50 50)">
  <rect fill="#88cb7f" height="12" width="5" ry="6" rx="2.5" y="24" x="47.5">
    <animate repeatCount="indefinite" begin="-0.5882352941176471s" dur="0.9803921568627451s" keyTimes="0;1" values="1;0" attributeName="opacity"></animate>
  </rect>
</g><g transform="rotate(144 50 50)">
  <rect fill="#88cb7f" height="12" width="5" ry="6" rx="2.5" y="24" x="47.5">
    <animate repeatCount="indefinite" begin="-0.4901960784313726s" dur="0.9803921568627451s" keyTimes="0;1" values="1;0" attributeName="opacity"></animate>
  </rect>
</g><g transform="rotate(180 50 50)">
  <rect fill="#88cb7f" height="12" width="5" ry="6" rx="2.5" y="24" x="47.5">
    <animate repeatCount="indefinite" begin="-0.3921568627450981s" dur="0.9803921568627451s" keyTimes="0;1" values="1;0" attributeName="opacity"></animate>
  </rect>
</g><g transform="rotate(216 50 50)">
  <rect fill="#88cb7f" height="12" width="5" ry="6" rx="2.5" y="24" x="47.5">
    <animate repeatCount="indefinite" begin="-0.29411764705882354s" dur="0.9803921568627451s" keyTimes="0;1" values="1;0" attributeName="opacity"></animate>
  </rect>
</g><g transform="rotate(252 50 50)">
  <rect fill="#88cb7f" height="12" width="5" ry="6" rx="2.5" y="24" x="47.5">
    <animate repeatCount="indefinite" begin="-0.19607843137254904s" dur="0.9803921568627451s" keyTimes="0;1" values="1;0" attributeName="opacity"></animate>
  </rect>
</g><g transform="rotate(288 50 50)">
  <rect fill="#88cb7f" height="12" width="5" ry="6" rx="2.5" y="24" x="47.5">
    <animate repeatCount="indefinite" begin="-0.09803921568627452s" dur="0.9803921568627451s" keyTimes="0;1" values="1;0" attributeName="opacity"></animate>
  </rect>
</g><g transform="rotate(324 50 50)">
  <rect fill="#88cb7f" height="12" width="5" ry="6" rx="2.5" y="24" x="47.5">
    <animate repeatCount="indefinite" begin="0s" dur="0.9803921568627451s" keyTimes="0;1" values="1;0" attributeName="opacity"></animate>
  </rect>
</g><g></g></g><!-- [ldio] generated by https://loading.io --></svg>